<svg width="23" height="23" viewBox="0 0 23 23" fill="none" xmlns="http://www.w3.org/2000/svg">
    <path d="M12.5 20.8465H7.10307C4.12302 20.8465 1.70618 18.3707 1.70618 15.318V6.47147C1.70618 3.41874 4.12302 0.942947 7.10307 0.942947H15.739C18.719 0.942947 21.1359 3.41874 21.1359 6.47147V12" stroke="black" stroke-width="1.5" stroke-linecap="round" stroke-linejoin="round"/>
    <path d="M14.1691 8.07962C15.6861 9.63473 15.6861 12.1547 14.1691 13.7087C12.6511 15.2627 10.1911 15.2627 8.673 13.7087C7.156 12.1547 7.156 9.63473 8.673 8.07962C9.40129 7.33246 10.3907 6.91356 11.4211 6.91356C12.4515 6.91356 13.4409 7.33246 14.1691 8.07962Z" stroke="#8391A1" stroke-width="1.5" stroke-linecap="round" stroke-linejoin="round"/>
    <path d="M16.8181 19.1809H22.2149" stroke="black" stroke-width="1.5" stroke-linecap="round" stroke-linejoin="round"/>
    <path d="M19.5164 21.9452V16.4166" stroke="black" stroke-width="1.5" stroke-linecap="round" stroke-linejoin="round"/>
</svg>
